<svg width="26" height="26" viewBox="0 0 26 26" fill="none" xmlns="http://www.w3.org/2000/svg">
<path d="M13 0C10.4288 0 7.9154 0.76244 5.77759 2.1909C3.63975 3.61935 1.97351 5.64968 0.98957 8.0251C0.00562996 10.4006 -0.25181 13.0144 0.2498 15.5362C0.75141 18.0579 1.98953 20.3743 3.80762 22.1924C5.6257 24.0105 7.9421 25.2486 10.4638 25.7502C12.9856 26.2518 15.5995 25.9944 17.9749 25.0104C20.3503 24.0265 22.3807 22.3603 23.8091 20.2224C25.2376 18.0846 26 15.5712 26 13C25.9964 9.5533 24.6256 6.24882 22.1884 3.81163C19.7512 1.37445 16.4467 0.00364 13 0ZM13 24C10.8244 24 8.6977 23.3549 6.88873 22.1462C5.07979 20.9375 3.66989 19.2195 2.83733 17.2095C2.00477 15.1995 1.78693 12.9878 2.21137 10.854C2.63581 8.7202 3.68345 6.7602 5.22183 5.22183C6.76021 3.68345 8.7202 2.6358 10.854 2.21136C12.9878 1.78692 15.1995 2.00476 17.2095 2.83733C19.2195 3.66989 20.9375 5.07979 22.1462 6.88873C23.3549 8.6977 24 10.8244 24 13C23.9967 15.9164 22.8367 18.7123 20.7745 20.7745C18.7123 22.8367 15.9164 23.9967 13 24ZM19 13C19 13.2652 18.8946 13.5196 18.7071 13.7071C18.5196 13.8946 18.2652 14 18 14H10.4138L12.7075 16.2925C12.8004 16.3854 12.8741 16.4957 12.9244 16.6171C12.9747 16.7385 13.0006 16.8686 13.0006 17C13.0006 17.1314 12.9747 17.2615 12.9244 17.3829C12.8741 17.5043 12.8004 17.6146 12.7075 17.7075C12.6146 17.8004 12.5043 17.8741 12.3829 17.9244C12.2615 17.9747 12.1314 18.0006 12 18.0006C11.8686 18.0006 11.7385 17.9747 11.6171 17.9244C11.4957 17.8741 11.3854 17.8004 11.2925 17.7075L7.2925 13.7075C7.1995 13.6146 7.1258 13.5043 7.0754 13.3829C7.0251 13.2615 6.99922 13.1314 6.99922 13C6.99922 12.8686 7.0251 12.7385 7.0754 12.6171C7.1258 12.4957 7.1995 12.3854 7.2925 12.2925L11.2925 8.2925C11.4801 8.1049 11.7346 7.9994 12 7.9994C12.2654 7.9994 12.5199 8.1049 12.7075 8.2925C12.8951 8.4801 13.0006 8.7346 13.0006 9C13.0006 9.2654 12.8951 9.5199 12.7075 9.7075L10.4138 12H18C18.2652 12 18.5196 12.1054 18.7071 12.2929C18.8946 12.4804 19 12.7348 19 13Z" fill="currentColor"/>
</svg>
