<?xml version="1.0" encoding="utf-8"?>
<!-- Generator: Adobe Illustrator 25.4.2, SVG Export Plug-In . SVG Version: 6.00 Build 0)  -->
<svg version="1.1" id="Layer_1" xmlns="http://www.w3.org/2000/svg" xmlns:xlink="http://www.w3.org/1999/xlink" x="0px" y="0px"
	 viewBox="0 0 886.3 248.8" style="enable-background:new 0 0 886.3 248.8;" xml:space="preserve">
<style type="text/css">
	
		.st0{clip-path:url(#SVGID_00000026128028514848937880000017344406445725349558_);fill:url(#SVGID_00000153676563510482640420000002782577199902200711_);}
	
		.st1{clip-path:url(#SVGID_00000042014498665617886570000009895110855722466228_);fill:url(#SVGID_00000095309918855793203960000008245469254088563102_);}
	.st2{fill:#D7282F;}
	
		.st3{clip-path:url(#SVGID_00000129885735488282205610000012529079735264665270_);fill:url(#SVGID_00000005237049249947473200000005282940788763518866_);}
	
		.st4{clip-path:url(#SVGID_00000072969493565083725120000012121713128444844182_);fill:url(#SVGID_00000176737620944350865040000004771445798356277180_);}
	.st5{fill:#585F66;}
	.st6{fill:#E11E30;}
</style>
<g>
	<path class="st5" d="M442.6,100.7c-1.1,0.3-2.3,0.5-3.5,0.6l-4.6,0.4c-1.7,0.1-3.3,0.3-5.1,0.3c-1.7,0.1-3.3,0.1-4.8,0.1
		c-3.4,0-6.8-0.3-10.2-0.9c-3.1-0.5-6-1.7-8.6-3.5c-2.6-1.8-4.6-4.3-5.9-7.2c-1.6-3.8-2.4-8-2.2-12.1V21.6c0-1.2,1-2.2,2.2-2.2h14.4
		c1.2,0,2.2,1,2.2,2.2v56.9c0,2.9,0.5,4.8,1.6,5.9c1.1,1.1,2.9,1.6,5.4,1.6h18.9c1.2,0,2.2,1,2.2,2.2v10.2
		C444.8,99.6,444.1,100.4,442.6,100.7z"/>
	<path class="st5" d="M467.5,30.2c-0.4,0.4-1,0.7-1.5,0.7h-14.3c-0.6,0-1.1-0.2-1.5-0.7c-0.4-0.4-0.7-1-0.7-1.5V18.5
		c0-0.6,0.2-1.1,0.7-1.5c0.4-0.4,1-0.7,1.5-0.7H466c1.2,0,2.2,1,2.2,2.2v10.2C468.1,29.3,467.9,29.8,467.5,30.2z M467,100.4
		c-0.4,0.4-1,0.7-1.5,0.7h-13.4c-0.6,0-1.1-0.2-1.5-0.7c-0.4-0.4-0.7-1-0.7-1.5V40.3c0-0.6,0.2-1.1,0.7-1.5c0.4-0.4,1-0.7,1.5-0.7
		h13.4c1.2,0,2.2,1,2.2,2.2v58.6C467.7,99.5,467.4,100,467,100.4L467,100.4z"/>
	<path class="st5" d="M530.4,100.4c-0.4,0.5-1,0.7-1.6,0.7h-13.3c-0.6,0-1.2-0.3-1.5-0.7c-0.4-0.4-0.7-1-0.7-1.6V62.2
		c0-1.6-0.1-3.2-0.3-4.8c-0.2-1.1-0.6-2.2-1.2-3.2c-0.6-0.8-1.5-1.4-2.5-1.7c-1.3-0.4-2.7-0.5-4.1-0.5c-1.7,0-3.4,0.4-5,1
		c-1.8,0.7-3.6,1.6-5.4,2.5v43.3c0,0.6-0.2,1.2-0.7,1.6c-0.4,0.5-0.9,0.7-1.5,0.7h-13.3c-1.2-0.1-2.2-1.1-2.3-2.3V40.3
		c0-1.2,1-2.2,2.2-2.2h12.3c0.6,0,1.1,0.2,1.5,0.7c0.4,0.4,0.7,1,0.7,1.6v2.6c5.1-3.9,11.5-6,17.9-5.8c3.4-0.1,6.7,0.5,9.7,1.9
		c2.4,1.2,4.5,3,5.9,5.3c1.5,2.4,2.5,5.1,3,7.9c0.6,3.2,0.8,6.5,0.8,9.7v36.7C531.1,99.3,530.8,100,530.4,100.4z"/>
	<path class="st5" d="M594.7,39.3c0,0.4-0.2,0.8-0.4,1.1l-20.5,27.8l20.3,30.6c0.4,0.7,0.2,1.7-0.5,2.1c-0.2,0.1-0.4,0.2-0.7,0.2
		h-16.6c-0.5,0-1-0.1-1.5-0.3c-0.6-0.3-1-0.8-1.3-1.3l-15.8-25.9v25.1c0,0.6-0.2,1.2-0.7,1.6c-0.4,0.5-0.9,0.7-1.5,0.7h-13.2
		c-0.6,0-1.2-0.3-1.6-0.7c-0.4-0.4-0.7-1-0.7-1.6V18.9c0-0.6,0.3-1.2,0.7-1.5c0.4-0.4,1-0.7,1.6-0.7h13.3c0.6,0,1.1,0.2,1.5,0.7
		c0.4,0.4,0.7,1,0.7,1.5v46l16.7-25.2c0.3-0.6,0.8-1,1.4-1.3c0.4-0.2,0.9-0.3,1.4-0.3H593C594.1,38.1,594.7,38.5,594.7,39.3z"/>
	<path class="st6" d="M413.1,240.1c0,1.5-0.8,2.2-2.4,2.2h-19.5c-0.7,0-1.3-0.2-1.8-0.7c-0.5-0.5-0.8-1.1-1-1.8l-5-22.8H355l-5,22.8
		c-0.2,0.7-0.5,1.3-1,1.8c-0.5,0.5-1.1,0.7-1.8,0.7h-19.5c-1.6,0-2.4-0.7-2.4-2.2c0-0.1,0-0.2,0.1-0.3c0-0.1,0.1-0.3,0.1-0.4
		l20.7-86.2c0.6-2.9,1.9-5.7,3.6-8.1c1.5-1.9,3.3-3.5,5.5-4.7c2.1-1.1,4.4-1.8,6.7-2.2c2.4-0.4,4.8-0.6,7.2-0.6
		c2.4,0,4.8,0.2,7.2,0.6c2.3,0.4,4.6,1.1,6.7,2.2c2.2,1.1,4,2.7,5.5,4.7c1.7,2.4,3,5.2,3.6,8.1l20.7,86.2c0,0.1,0,0.3,0.1,0.4
		C413.1,239.9,413.1,240,413.1,240.1z M371.2,159.7c-0.1-0.6-0.3-1.1-0.6-1.6c-0.2-0.3-0.6-0.5-1.3-0.5c-1,0-1.7,0.7-1.9,2.1
		L359,198h20.7L371.2,159.7z"/>
	<path class="st6" d="M461.6,242.4c-2.1,0.4-4,0.6-5.6,0.8c-1.8,0.2-3.6,0.3-5.4,0.3c-3.4,0-6.7-0.3-10-1c-5.7-1-10.2-5.2-11.7-10.8
		c-1.1-3.9-1.6-8-1.5-12v-40.3l-11.1-1.8c-0.7-0.2-1.4-0.5-2-1c-0.6-0.5-0.9-1.1-0.9-1.9v-9.2c0-0.8,0.3-1.5,0.9-2
		c0.5-0.6,1.3-0.9,2-0.9h11.1v-11.4c0-0.7,0.3-1.4,0.8-1.8c0.6-0.5,1.2-0.8,1.9-1l16.9-2.9h0.4c0.7,0,1.3,0.2,1.8,0.6
		c0.5,0.5,0.7,1.1,0.7,1.7v14.7h11.4c0.7,0,1.4,0.3,1.9,0.8c0.5,0.5,0.8,1.2,0.8,2v11.4c0,0.7-0.3,1.5-0.8,2
		c-0.5,0.5-1.2,0.8-1.9,0.8H450v40.5c-0.1,1.8,0.1,3.6,0.7,5.3c0.5,0.8,1.8,1.2,3.9,1.2h6.8c1.9,0,2.9,0.8,2.9,2.3v10.8
		C464.3,241.3,463.4,242.2,461.6,242.4z"/>
	<path class="st6" d="M493.3,241.4c-0.5,0.6-1.1,0.9-1.9,0.9h-17c-1.6-0.1-2.8-1.3-2.9-2.9V138.5c0-0.7,0.3-1.4,0.9-1.9
		c0.5-0.5,1.3-0.8,2-0.8h17c0.7,0,1.4,0.3,1.9,0.8c0.5,0.5,0.8,1.2,0.8,1.9v100.9C494,240.2,493.7,240.9,493.3,241.4z"/>
	<path class="st6" d="M565.8,241.5c-0.5,0.5-1.2,0.8-1.9,0.8h-15.6c-0.7,0-1.4-0.3-2-0.8c-0.5-0.5-0.8-1.2-0.8-1.9v-2.2
		c-2.6,1.9-5.5,3.5-8.5,4.6c-3.5,1.2-7.1,1.7-10.8,1.7c-3,0-5.9-0.4-8.8-1.2c-2.8-0.8-5.4-2.1-7.6-4c-2.3-2-4.1-4.5-5.3-7.4
		c-1.4-3.6-2.1-7.5-2-11.4v-1.3c0-8.2,2.7-14.1,8.1-17.9c5.4-3.8,14.1-5.6,26.1-5.6h7.5v-5c0-4-0.9-6.6-2.8-7.8
		c-2.3-1.3-5-1.9-7.6-1.8c-2.2,0-4.5,0-6.7,0.1c-2.3,0.1-4.5,0.1-6.5,0.2c-2.1,0.1-4,0.2-5.6,0.3l-4.2,0.4h-0.7
		c-0.6,0-1.3-0.2-1.8-0.6c-0.5-0.5-0.8-1.2-0.7-2v-11.2c0-1.5,1.1-2.9,2.6-3.1c2.6-0.6,6.1-1.3,10.5-1.9c4.5-0.7,9-1,13.6-1
		c4.6,0,9.1,0.5,13.6,1.6c3.7,0.9,7.2,2.6,10.2,5c2.8,2.3,5.1,5.4,6.5,8.8c1.6,4.1,2.4,8.6,2.3,13v49.6
		C566.7,240.3,566.3,241,565.8,241.5z M544.5,208.3h-7.9c-4.8,0-8.1,0.8-9.7,2.5s-2.5,4.2-2.5,7.6v1.3c0,3,0.7,4.9,2.2,5.7
		c2.1,1,4.3,1.4,6.6,1.3c2,0,4.1-0.3,6-0.9c1.8-0.6,3.6-1.3,5.4-2.2L544.5,208.3z M561.5,135.1c0,0.4-0.2,0.8-0.6,1.1l-17,16.9
		c-0.4,0.5-0.9,0.9-1.4,1.3c-0.6,0.3-1.3,0.5-1.9,0.4h-14.9c-0.8,0-1.3-0.3-1.3-1c0-0.5,0.2-1,0.6-1.4l12.9-16.3
		c0.5-0.6,1-1.1,1.6-1.6c0.6-0.4,1.4-0.6,2.2-0.5h18.2C560.9,134,561.5,134.3,561.5,135.1L561.5,135.1z"/>
	<path class="st6" d="M645.2,241.4c-0.5,0.6-1.3,0.9-2,0.9h-16.8c-0.7,0-1.5-0.3-2-0.9c-0.5-0.5-0.8-1.3-0.8-2v-46.2
		c0-2-0.1-4.1-0.4-6.1c-0.2-1.4-0.7-2.8-1.5-4c-0.8-1-1.9-1.8-3.1-2.2c-1.7-0.5-3.5-0.7-5.3-0.6c-2.1,0-4.3,0.4-6.2,1.2
		c-2.3,0.9-4.6,2-6.8,3.2v54.7c0,0.8-0.3,1.5-0.8,2c-0.5,0.6-1.2,0.9-1.9,0.9h-16.8c-1.6-0.1-2.8-1.3-2.9-2.9v-74
		c0-0.7,0.3-1.4,0.8-2c0.5-0.5,1.2-0.8,2-0.8h15.6c1.5,0,2.8,1.3,2.8,2.8v3.4c6.5-5,14.5-7.6,22.7-7.3c4.2-0.2,8.4,0.7,12.3,2.4
		c3.1,1.5,5.7,3.9,7.5,6.7c1.9,3.1,3.2,6.5,3.8,10.1c0.7,4.1,1.1,8.2,1,12.3v46.3C646.1,240.2,645.8,240.9,645.2,241.4z"/>
	<path class="st6" d="M700.3,242.4c-2.1,0.4-4,0.6-5.6,0.8c-1.8,0.2-3.6,0.3-5.4,0.3c-3.4,0-6.7-0.3-10-1c-2.7-0.5-5.2-1.8-7.3-3.5
		c-2.1-2-3.6-4.5-4.4-7.2c-1.1-3.9-1.6-8-1.5-12v-40.3l-11.1-1.8c-0.7-0.2-1.4-0.5-2-1c-0.6-0.5-0.9-1.1-0.9-1.9v-9.2
		c0.1-1.6,1.3-2.8,2.9-2.9h11.1v-11.4c0-0.7,0.3-1.4,0.8-1.8c0.6-0.5,1.2-0.8,1.9-1l16.9-2.9h0.4c0.7,0,1.3,0.2,1.8,0.6
		c0.5,0.5,0.7,1.1,0.7,1.7v14.7H700c1.5,0,2.8,1.3,2.8,2.8v11.4c0,1.5-1.3,2.8-2.8,2.8h-11.4v40.5c-0.1,1.8,0.1,3.6,0.7,5.3
		c0.5,0.8,1.8,1.2,3.9,1.2h6.8c2,0,2.9,0.8,2.9,2.3v10.8C703,241.3,702.1,242.2,700.3,242.4z"/>
	<path class="st6" d="M733,152.8c-0.5,0.5-1.2,0.8-2,0.8h-18.1c-0.7,0-1.4-0.3-1.9-0.8c-0.5-0.5-0.8-1.2-0.8-1.9v-12.9
		c0-1.5,1.3-2.7,2.8-2.8H731c1.5,0,2.8,1.3,2.8,2.8v12.9C733.8,151.6,733.5,152.3,733,152.8z M732.4,241.5c-0.5,0.5-1.2,0.8-1.9,0.8
		h-17c-1.5,0-2.7-1.3-2.8-2.8v-74.1c0-0.7,0.3-1.4,0.8-2c0.5-0.5,1.2-0.8,1.9-0.8h17c1.5,0,2.7,1.3,2.8,2.8v74.1
		C733.3,240.3,733,241,732.4,241.5z"/>
	<path class="st6" d="M810.5,238.4c-1,0.8-2.2,1.3-3.5,1.5c-9.7,2.4-19.6,3.6-29.6,3.6c-11.3,0-19.9-3.1-25.9-9.2
		c-6-6.2-9-14.9-9-26.3v-10.8c0-10.9,2.9-19.6,8.6-26c5.7-6.4,14.5-9.6,26.3-9.6c1.3,0,3.1,0.1,5.3,0.3c2.2,0.2,4.1,0.4,6.2,0.7
		v-24.1c0-0.7,0.3-1.4,0.8-1.9c0.5-0.5,1.2-0.9,2-0.8h16.8c0.8,0,1.5,0.3,2,0.8c0.6,0.5,0.9,1.2,0.9,1.9V236
		C811.3,236.9,811.1,237.7,810.5,238.4z M788.7,180.9c-1.7-0.2-3.6-0.3-5.7-0.5c-2.1-0.1-4-0.2-5.7-0.2c-2.1-0.1-4.2,0.3-6.1,1.3
		c-1.6,0.8-2.9,2-3.8,3.6c-1,1.7-1.7,3.5-2,5.4c-0.4,2.2-0.6,4.5-0.6,6.7V208c0,2.3,0.2,4.6,0.6,6.9c0.3,1.9,1,3.8,2,5.4
		c0.9,1.5,2.2,2.7,3.8,3.5c1.9,0.9,4,1.3,6.1,1.3c2.3,0,4.5-0.1,6.5-0.3c2-0.2,3.6-0.4,4.9-0.6V180.9z"/>
	<path class="st6" d="M883,241.5c-0.5,0.5-1.2,0.8-1.9,0.8h-15.6c-0.7,0-1.5-0.3-2-0.8c-0.5-0.5-0.8-1.2-0.8-1.9v-2.2
		c-2.6,1.9-5.5,3.5-8.5,4.6c-3.5,1.2-7.1,1.7-10.8,1.7c-3,0-6-0.4-8.8-1.2c-2.8-0.8-5.4-2.1-7.6-4c-2.3-2-4.2-4.5-5.3-7.4
		c-1.5-3.6-2.1-7.5-2-11.4v-1.3c0-8.2,2.7-14.1,8.1-17.9c5.4-3.8,14.1-5.6,26.1-5.6h7.5v-5c0-4-0.9-6.6-2.8-7.8
		c-2.3-1.3-5-2-7.6-1.8c-2.2,0-4.5,0-6.7,0.1s-4.5,0.1-6.5,0.2c-2.1,0.1-4,0.2-5.6,0.3l-4.2,0.4h-0.7c-0.6,0-1.3-0.2-1.8-0.6
		c-0.5-0.5-0.8-1.2-0.7-2v-11.2c0-1.5,1.1-2.9,2.6-3.1c2.6-0.6,6.2-1.3,10.6-1.9c4.5-0.7,9-1,13.6-1c4.5-0.1,9.1,0.5,13.5,1.5
		c3.7,0.9,7.2,2.6,10.2,5c2.8,2.3,5.1,5.4,6.5,8.8c1.6,4.1,2.4,8.6,2.3,13v49.6C883.8,240.3,883.5,241,883,241.5z M861.7,208.3h-7.9
		c-4.8,0-8.1,0.8-9.7,2.5s-2.5,4.2-2.5,7.6v1.3c0,3,0.7,4.9,2.2,5.7c2.1,1,4.3,1.4,6.6,1.3c2,0,4.1-0.3,6-0.9
		c1.8-0.6,3.6-1.3,5.4-2.2V208.3z"/>
	<path class="st5" d="M184.8,58.2c-1.8,3.3-4.3,6.1-7.5,8.2c-3.2,2.1-6.8,3.6-10.6,4.4c-4,0.9-8,1.3-12.1,1.3c-1.3,0-2.8,0-4.4-0.1
		l-4.5-0.2v26.9c0,0.6-0.2,1.2-0.7,1.6c-0.4,0.4-1,0.7-1.6,0.7h-14.3c-0.6,0-1.1-0.2-1.5-0.6c-0.4-0.4-0.7-0.9-0.7-1.5V24.3
		c-0.2-1.4,0.3-2.8,1.2-3.9c1.1-0.8,2.4-1.3,3.8-1.4c2.8-0.4,6.2-0.8,10.3-1s8.1-0.4,12.1-0.4c4.1,0,8.2,0.4,12.3,1.2
		c3.8,0.7,7.4,2.2,10.6,4.3c3.1,2.1,5.7,4.9,7.5,8.2c2,4,3,8.5,2.8,13v1C187.7,49.7,186.8,54.2,184.8,58.2z M168.7,44.3
		c0-4-1.2-6.8-3.6-8.5c-2.4-1.7-5.9-2.5-10.6-2.5c-0.4,0-1,0-1.8,0l-2.6,0.1l-2.6,0.1c-0.8,0-1.4,0-1.8,0v22.6c0.3,0,0.9,0,1.7,0
		l2.8,0.1c1,0,1.9,0,2.7,0h1.7c4.9,0,8.5-0.9,10.7-2.8c2.2-1.8,3.4-4.6,3.4-8.4L168.7,44.3z"/>
	<path class="st5" d="M241.8,100.2c-0.4,0.4-1,0.7-1.5,0.7h-12.4c-1.2,0-2.2-1-2.2-2.2v-1.8c-2.1,1.5-4.4,2.7-6.8,3.6
		c-2.8,0.9-5.7,1.4-8.6,1.3c-2.4,0-4.7-0.3-7-0.9c-2.2-0.6-4.3-1.7-6-3.2c-1.9-1.6-3.3-3.6-4.3-5.9c-1.2-2.9-1.7-6-1.6-9.1v-1
		c0-6.5,2.2-11.2,6.5-14.2c4.3-3,11.2-4.5,20.8-4.5h6v-4c0-3.2-0.7-5.2-2.2-6.2c-1.9-1.1-4-1.6-6.1-1.4c-1.8,0-3.6,0-5.4,0
		c-1.8,0-3.5,0.1-5.2,0.2c-1.7,0.1-3.2,0.2-4.5,0.3l-3.3,0.3h-0.6c-0.5,0-1-0.1-1.4-0.4c-0.4-0.4-0.6-1-0.6-1.6v-9
		c0-1.2,0.9-2.3,2.1-2.4c2.1-0.5,4.8-1,8.4-1.6c3.6-0.5,7.2-0.8,10.8-0.8c3.6,0,7.3,0.4,10.8,1.3c3,0.7,5.7,2.1,8.1,4
		c2.3,1.9,4,4.3,5.1,7c1.3,3.3,1.9,6.8,1.8,10.4v39.6C242.4,99.2,242.2,99.8,241.8,100.2z M224.8,73.8h-6.3c-3.8,0-6.4,0.7-7.8,2
		c-1.4,1.7-2.2,3.9-2,6.1v1c0,2.4,0.6,3.9,1.7,4.5c1.7,0.8,3.5,1.1,5.3,1c1.6,0,3.3-0.2,4.8-0.7c1.5-0.5,2.9-1,4.3-1.7L224.8,73.8z"
		/>
	<path class="st5" d="M308,48.2c-0.4,0.4-1,0.6-1.5,0.8l-3.4,1.1c0.7,1.2,1.3,2.5,1.7,3.9c0.4,1.4,0.7,2.9,0.7,4.3v1
		c0,7.2-2.4,12.5-7.1,15.8c-4.8,3.3-11.5,5-20.2,4.9c-2.3,0-4.6-0.1-6.9-0.5c-1.6-0.2-3.1-0.6-4.6-1.2c-0.5,0.3-0.9,0.7-1.2,1.2
		c-0.2,0.4-0.3,0.9-0.3,1.4c-0.1,0.7,0.2,1.5,0.7,2c0.8,0.6,1.7,1,2.6,1.1l12.5,2.8c4.8,1,8.9,2,12.2,3.1c2.8,0.8,5.5,1.9,8,3.4
		c1.9,1.1,3.4,2.7,4.4,4.6c0.9,2.1,1.4,4.4,1.3,6.7v0.9c0,12-9.7,18-29.1,18c-9.2,0-16.2-1.5-21-4.6c-4.6-2.8-7.4-8-7.1-13.4v-0.9
		c0-2.3,0.5-4.6,1.5-6.6c1.2-2.3,3-4.3,5.1-5.9c-1.9-1-3.4-2.6-4.3-4.6c-0.8-1.8-1.3-3.7-1.3-5.7c0-1.9,0.4-3.8,1.4-5.4
		c0.9-1.5,2.1-2.9,3.5-4c-1.8-1.6-3.2-3.7-3.9-6.1c-0.8-2.3-1.2-4.7-1.2-7.1v-0.9c-0.2-5.8,2.2-11.4,6.6-15.2
		c4.4-3.8,11.4-5.8,21.1-5.8h27.6c0.8,0,1.5,0.3,2,0.8c0.5,0.6,0.8,1.3,0.8,2v6.3C308.6,47.3,308.4,47.8,308,48.2z M288.6,104.5
		c0-0.5-0.1-1-0.4-1.5c-0.4-0.6-0.9-1.1-1.6-1.4c-1.1-0.6-2.3-1-3.4-1.4c-2-0.6-4-1.1-6-1.5L269,97c-0.7,0.9-1.2,2-1.6,3
		c-0.5,1.4-0.7,3-0.6,4.5v0.9c-0.1,1.7,0.8,3.4,2.3,4.3c1.5,0.9,4.5,1.4,8.7,1.4c1.9,0,3.7-0.1,5.5-0.4c1.2-0.2,2.3-0.6,3.3-1.2
		c0.7-0.4,1.2-1.1,1.5-1.8c0.3-0.7,0.4-1.5,0.4-2.3L288.6,104.5z M288.1,58.3c0-2-0.7-4-2-5.6c-1.3-1.5-4-2.3-7.9-2.3
		s-6.6,0.8-7.9,2.3c-1.4,1.6-2.2,3.6-2.1,5.7v0.9c0,1,0.1,1.9,0.4,2.8c0.3,0.9,0.8,1.8,1.5,2.5c0.9,0.8,1.9,1.4,3.1,1.8
		c1.7,0.5,3.4,0.7,5.1,0.7c4,0,6.6-0.7,7.9-2.1c1.4-1.6,2.1-3.6,2-5.7L288.1,58.3z"/>
	<path class="st5" d="M365.1,85c-1.1,3.4-2.9,6.4-5.3,9c-2.4,2.5-5.4,4.5-8.6,5.8c-7.7,2.7-16.1,2.7-23.8,0
		c-6.7-2.5-11.9-8-14.1-14.8c-1.3-3.9-1.9-7.9-1.8-12v-7.8c-0.1-4,0.6-8.1,1.8-11.9c2.2-6.8,7.3-12.3,14-14.8
		c7.7-2.7,16.1-2.7,23.8,0c3.3,1.3,6.2,3.2,8.6,5.8c2.4,2.6,4.2,5.7,5.3,9c1.3,3.8,1.9,7.9,1.8,11.9V73
		C366.9,77.1,366.3,81.1,365.1,85z M349,65.3c0-9-3.2-13.5-9.7-13.5c-2.9-0.2-5.6,1.1-7.3,3.4c-1.7,2.3-2.5,5.6-2.5,10.1V73
		c0,4.5,0.8,7.9,2.5,10.2c1.7,2.3,4.5,3.6,7.3,3.4c6.5,0,9.7-4.5,9.7-13.6V65.3z"/>
	<path class="st5" d="M334.6,136.3c-0.1-4.4-3.7-7.9-8.1-7.9c-26.7,0-203.4,0-237.3,0.1c-3.1,0-4.4-0.7-5-4
		c-5.6-31.7-8-59.4-9.7-68.7h29.8c4.5,0,8.1-3.6,8.1-8.1l0,0c0-4.5-3.6-8.1-8.1-8.1l0,0H77c-6.6,0-5.3,1.2-6.5-5.6
		c-2.9-16.6-15-30-31-32.4c-9-1.3-18.4-0.8-27.6-0.9C6.3,0.6,2.4,4.2,2.5,9s3.9,7.9,9.5,7.9c6.6,0,13.3-0.1,19.9,0
		c10.8-0.1,20,7.7,21.8,18.4c4.8,26.4,12.9,84.8,18.1,114.3c3.4,19.5,18.8,33.8,37.1,33.8c53.8,0.1,181.3,0.1,188.7,0
		c4.4-0.1,8-3.8,7.9-8.2c-0.1-3.7-2.6-6.8-6.2-7.6c-1.4-0.3-2.9-0.4-4.4-0.3c-59.9,0-131,0-184.9-0.1c-1.2,0-2.3-0.1-3.5-0.3
		c-10.7-2.2-16.7-9.3-18.3-21.9c1,0,1.8-0.2,2.6-0.2h235.7c4.5,0,8.1-3.6,8.1-8.1C334.5,136.6,334.5,136.5,334.6,136.3L334.6,136.3z
		"/>
	<path class="st5" d="M124.5,193.1c-15.7,0.1-28.2,12.4-28.2,27.6c0,15.2,12.7,27.4,28.3,27.4s28.3-12.3,28.3-27.4
		C153,205.4,140.2,193,124.5,193.1z M124.6,231.9c-6.3,0.1-11.4-4.9-11.5-11.2c0-0.1,0-0.3,0-0.4c0.3-6.4,5.7-11.3,12.1-11
		c6.1,0.3,10.9,5.3,11,11.4c-0.1,6.2-5.2,11.2-11.5,11.1C124.6,231.9,124.6,231.9,124.6,231.9z"/>
	<path class="st5" d="M250.9,193.1c-15.3,0.1-28,12.5-28,27.5c0,14.9,12.7,27.5,27.9,27.5c16.1,0,28.8-12.1,28.8-27.7
		S266.8,193,250.9,193.1z M250.9,231.9c-6.3-0.1-11.3-5.3-11.2-11.6c0-6.4,5.2-11.6,11.6-11.6s11.6,5.2,11.6,11.6
		c0,6.4-5.2,11.6-11.6,11.6C251.1,231.9,251,231.9,250.9,231.9z"/>
</g>
</svg>
