<svg width="26" height="27" viewBox="0 0 26 27" fill="none" xmlns="http://www.w3.org/2000/svg" class="w-[26px] h-[26px] shrink-0" color="var(--PRIMARY_COLOR)"><path d="M17.9248 10.2002C18.0384 10.3135 18.1285 10.448 18.1901 10.5961C18.2516 10.7443 18.2832 10.9031 18.2832 11.0635C18.2832 11.2239 18.2516 11.3827 18.1901 11.5309C18.1285 11.679 18.0384 11.8136 17.9248 11.9268L12.2373 17.6143C12.124 17.7279 11.9895 17.8181 11.8414 17.8796C11.6932 17.9411 11.5344 17.9728 11.374 17.9728C11.2136 17.9728 11.0548 17.9411 10.9066 17.8796C10.7585 17.8181 10.6239 17.7279 10.5107 17.6143L8.07321 15.1768C7.95984 15.0634 7.86991 14.9288 7.80856 14.7807C7.7472 14.6326 7.71563 14.4738 7.71563 14.3135C7.71563 14.1532 7.7472 13.9944 7.80856 13.8463C7.86991 13.6982 7.95984 13.5636 8.07321 13.4502C8.18658 13.3369 8.32116 13.2469 8.46929 13.1856C8.61741 13.1242 8.77616 13.0927 8.93649 13.0927C9.09682 13.0927 9.25557 13.1242 9.40369 13.1856C9.55182 13.2469 9.6864 13.3369 9.79977 13.4502L11.375 15.0234L16.2002 10.1972C16.3136 10.0841 16.4482 9.99441 16.5963 9.93334C16.7443 9.87227 16.903 9.84098 17.0631 9.84127C17.2233 9.84155 17.3818 9.8734 17.5297 9.93499C17.6775 9.99659 17.8118 10.0867 17.9248 10.2002ZM23.9688 13.5C23.9688 15.6694 23.3255 17.7901 22.1202 19.5939C20.9149 21.3977 19.2018 22.8036 17.1976 23.6338C15.1933 24.464 12.9878 24.6812 10.8601 24.258C8.73238 23.8348 6.77794 22.7901 5.24393 21.2561C3.70992 19.7221 2.66525 17.7676 2.24202 15.6399C1.81878 13.5122 2.036 11.3067 2.8662 9.30244C3.6964 7.29816 5.10229 5.58508 6.90609 4.37982C8.7099 3.17456 10.8306 2.53125 13 2.53125C15.9081 2.53448 18.6962 3.69114 20.7525 5.74749C22.8089 7.80383 23.9655 10.5919 23.9688 13.5ZM21.5313 13.5C21.5313 11.8127 21.0309 10.1632 20.0935 8.76029C19.1561 7.35733 17.8237 6.26386 16.2648 5.61815C14.7059 4.97244 12.9905 4.8035 11.3356 5.13268C9.68074 5.46186 8.16062 6.27438 6.9675 7.46749C5.77438 8.66061 4.96186 10.1807 4.63268 11.8356C4.3035 13.4905 4.47245 15.2059 5.11816 16.7648C5.76387 18.3236 6.85734 19.656 8.2603 20.5935C9.66325 21.5309 11.3127 22.0312 13 22.0312C15.2619 22.0288 17.4304 21.1292 19.0298 19.5298C20.6292 17.9304 21.5288 15.7619 21.5313 13.5Z" fill="currentColor"></path></svg>