<svg width="26" height="26" viewBox="0 0 26 26" fill="none" xmlns="http://www.w3.org/2000/svg">
<path d="M13 0C15.5712 0 18.0846 0.76244 20.2224 2.1909C22.3603 3.61935 24.0265 5.64968 25.0104 8.0251C25.9944 10.4006 26.2518 13.0144 25.7502 15.5362C25.2486 18.0579 24.0105 20.3743 22.1924 22.1924C20.3743 24.0105 18.0579 25.2486 15.5362 25.7502C13.0144 26.2518 10.4005 25.9944 8.0251 25.0104C5.6497 24.0265 3.6193 22.3603 2.1909 20.2224C0.762401 18.0846 0 15.5712 0 13C0.0036 9.5533 1.3744 6.24882 3.8116 3.81163C6.2488 1.37445 9.5533 0.00364 13 0ZM13 24C15.1756 24 17.3023 23.3549 19.1113 22.1462C20.9202 20.9375 22.3301 19.2195 23.1627 17.2095C23.9952 15.1995 24.2131 12.9878 23.7886 10.854C23.3642 8.7202 22.3166 6.7602 20.7782 5.22183C19.2398 3.68345 17.2798 2.6358 15.146 2.21136C13.0122 1.78692 10.8005 2.00476 8.7905 2.83733C6.7805 3.66989 5.0625 5.07979 3.8538 6.88873C2.6451 8.6977 2 10.8244 2 13C2.0033 15.9164 3.1633 18.7123 5.2255 20.7745C7.2877 22.8367 10.0836 23.9967 13 24ZM7 13C7 13.2652 7.1054 13.5196 7.2929 13.7071C7.4804 13.8946 7.7348 14 8 14H15.5862L13.2925 16.2925C13.1996 16.3854 13.1259 16.4957 13.0756 16.6171C13.0253 16.7385 12.9994 16.8686 12.9994 17C12.9994 17.1314 13.0253 17.2615 13.0756 17.3829C13.1259 17.5043 13.1996 17.6146 13.2925 17.7075C13.3854 17.8004 13.4957 17.8741 13.6171 17.9244C13.7385 17.9747 13.8686 18.0006 14 18.0006C14.1314 18.0006 14.2615 17.9747 14.3829 17.9244C14.5043 17.8741 14.6146 17.8004 14.7075 17.7075L18.7075 13.7075C18.8005 13.6146 18.8742 13.5043 18.9246 13.3829C18.9749 13.2615 19.0008 13.1314 19.0008 13C19.0008 12.8686 18.9749 12.7385 18.9246 12.6171C18.8742 12.4957 18.8005 12.3854 18.7075 12.2925L14.7075 8.2925C14.5199 8.1049 14.2654 7.9994 14 7.9994C13.7346 7.9994 13.4801 8.1049 13.2925 8.2925C13.1049 8.4801 12.9994 8.7346 12.9994 9C12.9994 9.2654 13.1049 9.5199 13.2925 9.7075L15.5862 12H8C7.7348 12 7.4804 12.1054 7.2929 12.2929C7.1054 12.4804 7 12.7348 7 13Z" fill="currentColor"/>
</svg>
