<svg width="32" height="32" viewBox="0 0 32 32" fill="none" xmlns="http://www.w3.org/2000/svg">
<path fill-rule="evenodd" clip-rule="evenodd" d="M7.24079 4.94656L8.46823 4.70108C9.32108 4.53051 10.1864 4.93066 10.6088 5.69095L12.7027 9.45997C13.1363 10.2406 13 11.2141 12.3686 11.8455L10.9589 13.2552C10.3101 13.9048 10.1869 14.9127 10.6607 15.6991C11.4559 17.0211 12.3815 18.2102 13.4376 19.2663C14.4937 20.3223 15.6819 21.2471 17.0022 22.0406C17.7887 22.5123 18.7953 22.3886 19.4442 21.7404L20.8539 20.3308C21.4853 19.6993 22.4588 19.563 23.2394 19.9966L27.0084 22.0905C27.7687 22.5129 28.1688 23.3782 27.9982 24.2311L27.7528 25.4585C27.6354 26.0447 27.262 26.5477 26.734 26.828C21.7802 29.4686 16.4045 27.89 10.6069 22.0924C4.80928 16.2948 3.23075 10.9191 5.87129 5.96533C6.1516 5.43729 6.6546 5.0639 7.24079 4.94656Z" fill="currentColor"/>
</svg>
